<svg xmlns="http://www.w3.org/2000/svg" xmlns:xlink="http://www.w3.org/1999/xlink" width="103pt" height="147pt" viewBox="0.00 0.00 206.80 294.80"><g id="graph0" class="graph" transform="scale(1 1) rotate(0) translate(14.4 280.4)"><g id="edge1" class="edge"><path fill="none" stroke="black" stroke-width="5" stroke-dasharray="1,5" d="M92.86,-231.06C85.33,-214.27 73.55,-187.98 66.06,-171.26"></path></g><g id="edge4" class="edge"><path fill="none" stroke="black" stroke-width="5" stroke-dasharray="1,5" d="M107.32,-231.06C114.08,-216.32 124.21,-194.25 131.78,-177.77"></path></g><g id="edge2" class="edge"><path fill="none" stroke="black" stroke-width="10" d="M59,-153.5C59,-153.5 18,-40.5 18,-40.5"></path></g><g id="edge3" class="edge"><path fill="none" stroke="black" stroke-width="10" d="M59,-153.5C59,-153.5 101,-40.5 101,-40.5"></path></g><g id="node1" class="node"><ellipse fill="none" stroke="transparent" stroke-width="2" cx="100" cy="-248" rx="18" ry="18"></ellipse><text text-anchor="middle" x="100" y="-236" font-family="math" font-size="40.00">@</text></g><g id="node2" class="node"><ellipse fill="black" stroke="black" stroke-width="2" cx="59" cy="-154.5" rx="18" ry="18"></ellipse></g><g id="node3" class="node"><ellipse fill="black" stroke="black" stroke-width="2" cx="18" cy="-39.5" rx="18" ry="18"></ellipse></g><g id="node4" class="node"><polygon fill="#bbb700" stroke="#bbb700" stroke-width="2" points="101,-79 65,-19.75 137,-19.75 101,-79"></polygon><text text-anchor="middle" x="101" y="-29" font-family="monospace" font-size="35.00">𝑦</text></g><g id="node5" class="node"><polygon fill="#00da5c" stroke="#00da5c" stroke-width="2" points="142,-194 106,-134.75 178,-134.75 142,-194"></polygon><text text-anchor="middle" x="142" y="-144" font-family="monospace" font-size="35.00">𝑧</text></g></g></svg>