<svg xmlns="http://www.w3.org/2000/svg" xmlns:xlink="http://www.w3.org/1999/xlink" width="112pt" height="205pt" viewBox="0.00 0.00 224.80 409.80"><g id="graph0" class="graph" transform="scale(1 1) rotate(0) translate(14.4 395.4)"><g id="edge1" class="edge"><path fill="none" stroke="black" stroke-width="5" stroke-dasharray="1,5" d="M110.86,-346.06C103.33,-329.27 91.55,-302.98 84.06,-286.26"></path></g><g id="edge5" class="edge"><path fill="none" stroke="black" stroke-width="5" stroke-dasharray="1,5" d="M125.32,-346.06C132.08,-331.32 142.21,-309.25 149.78,-292.77"></path></g><g id="edge2" class="edge"><path fill="none" stroke="black" stroke-width="10" d="M77,-268.5C77,-268.5 36,-155.5 36,-155.5"></path></g><g id="edge4" class="edge"><path fill="none" stroke="black" stroke-width="10" d="M77,-268.5C77,-268.5 119,-155.5 119,-155.5"></path></g><g id="edge3" class="edge"><path fill="none" stroke="black" stroke-width="10" d="M36,-153.5C36,-153.5 36,-40.5 36,-40.5"></path></g><g id="node1" class="node"><ellipse fill="none" stroke="transparent" stroke-width="2" cx="118" cy="-363" rx="18" ry="18"></ellipse><text text-anchor="middle" x="118" y="-351" font-family="math" font-size="40.00">@</text></g><g id="node2" class="node"><ellipse fill="black" stroke="black" stroke-width="2" cx="77" cy="-269.5" rx="18" ry="18"></ellipse></g><g id="node3" class="node"><ellipse fill="black" stroke="black" stroke-width="2" cx="36" cy="-154.5" rx="18" ry="18"></ellipse></g><g id="node4" class="node"><polygon fill="#ff7b00" stroke="#ff7b00" stroke-width="2" points="36,-79 0,-19.75 72,-19.75 36,-79"></polygon><text text-anchor="middle" x="36" y="-29" font-family="monospace" font-size="35.00">𝑥</text></g><g id="node5" class="node"><polygon fill="#bbb700" stroke="#bbb700" stroke-width="2" points="119,-194 83,-134.75 155,-134.75 119,-194"></polygon><text text-anchor="middle" x="119" y="-144" font-family="monospace" font-size="35.00">𝑦</text></g><g id="node6" class="node"><polygon fill="#00da5c" stroke="#00da5c" stroke-width="2" points="160,-309 124,-249.75 196,-249.75 160,-309"></polygon><text text-anchor="middle" x="160" y="-259" font-family="monospace" font-size="35.00">𝑧</text></g></g></svg>