<svg xmlns="http://www.w3.org/2000/svg" xmlns:xlink="http://www.w3.org/1999/xlink" width="117" height="147pt" viewBox="0.00 0.00 233.80 294.80"><g id="graph0" class="graph" transform="scale(1 1) rotate(0) translate(14.4 280.4)"><g id="edge1" class="edge"><path fill="none" stroke="black" stroke-width="10" d="M127,-247C127,-247 86,-155.5 86,-155.5"></path></g><g id="edge4" class="edge"><path fill="none" stroke="black" stroke-width="10" d="M127,-247C127,-247 169,-155.5 169,-155.5"></path></g><g id="edge2" class="edge"><path fill="none" stroke="black" stroke-width="10" d="M86,-153.5C86,-153.5 36,-40.5 36,-40.5"></path></g><g id="edge3" class="edge"><path fill="none" stroke="black" stroke-width="10" d="M86,-153.5C86,-153.5 137,-40.5 137,-40.5"></path></g><g id="node1" class="node"><ellipse fill="white" stroke="black" stroke-width="2" cx="127" cy="-248" rx="18" ry="18"></ellipse></g><g id="node2" class="node"><ellipse fill="white" stroke="black" stroke-width="2" cx="86" cy="-154.5" rx="18" ry="18"></ellipse></g><g id="node3" class="node"><polygon fill="#bbb700" stroke="#bbb700" stroke-width="2" points="36,-79 0,-19.75 72,-19.75 36,-79"></polygon><text text-anchor="middle" x="36" y="-29" font-family="monospace" font-size="35.00">𝑦</text></g><g id="node4" class="node"><polygon fill="#00c9ff" stroke="#00c9ff" stroke-width="2" points="137,-79 101,-19.75 173,-19.75 137,-79"></polygon><text text-anchor="middle" x="137" y="-29" font-family="monospace" font-size="35.00">𝑢</text></g><g id="node5" class="node"><polygon fill="#b383ff" stroke="#b383ff" stroke-width="2" points="169,-194 133,-134.75 205,-134.75 169,-194"></polygon><text text-anchor="middle" x="169" y="-144" font-family="monospace" font-size="35.00">𝑣</text></g></g></svg>