<svg xmlns="http://www.w3.org/2000/svg" xmlns:xlink="http://www.w3.org/1999/xlink" width="404pt" height="252pt" viewBox="0.00 0.00 403.80 251.80"><g id="graph0" class="graph" transform="scale(1 1) rotate(0) translate(14.4 237.4)"><g id="edge1" class="edge"><path fill="none" stroke="black" stroke-width="10" d="M187,-204C187,-204 137,-134 137,-134"></path></g><g id="edge4" class="edge"><path fill="none" stroke="black" stroke-width="10" d="M187,-204C187,-204 238,-134 238,-134"></path></g><g id="edge2" class="edge"><path fill="none" stroke="black" stroke-width="10" d="M137,-132C137,-132 36,-40.5 36,-40.5"></path></g><g id="edge3" class="edge"><path fill="none" stroke="black" stroke-width="10" d="M137,-132C137,-132 137,-40.5 137,-40.5"></path></g><g id="edge5" class="edge"><path fill="none" stroke="black" stroke-width="10" d="M238,-132C238,-132 238,-40.5 238,-40.5"></path></g><g id="edge6" class="edge"><path fill="none" stroke="black" stroke-width="10" d="M238,-132C238,-132 339,-40.5 339,-40.5"></path></g><g id="node1" class="node"><ellipse fill="white" stroke="black" stroke-width="2" cx="187" cy="-205" rx="18" ry="18"></ellipse></g><g id="node2" class="node"><ellipse fill="white" stroke="black" stroke-width="2" cx="137" cy="-133" rx="18" ry="18"></ellipse></g><g id="node3" class="node"><polygon fill="#ff7b00" stroke="#ff7b00" stroke-width="2" points="36,-79 0,-19.75 72,-19.75 36,-79"></polygon><text text-anchor="middle" x="36" y="-29" font-family="monospace" font-size="35.00">𝑥</text></g><g id="node4" class="node"><polygon fill="#00da5c" stroke="#00da5c" stroke-width="2" points="137,-79 101,-19.75 173,-19.75 137,-79"></polygon><text text-anchor="middle" x="137" y="-29" font-family="monospace" font-size="35.00">𝑧</text></g><g id="node5" class="node"><ellipse fill="white" stroke="black" stroke-width="2" cx="238" cy="-133" rx="18" ry="18"></ellipse></g><g id="node6" class="node"><polygon fill="#bbb700" stroke="#bbb700" stroke-width="2" points="238,-79 202,-19.75 274,-19.75 238,-79"></polygon><text text-anchor="middle" x="238" y="-29" font-family="monospace" font-size="35.00">𝑦</text></g><g id="node7" class="node"><polygon fill="#00da5c" stroke="#00da5c" stroke-width="2" points="339,-79 303,-19.75 375,-19.75 339,-79"></polygon><text text-anchor="middle" x="339" y="-29" font-family="monospace" font-size="35.00">𝑧</text></g></g></svg>