<svg xmlns="http://www.w3.org/2000/svg" xmlns:xlink="http://www.w3.org/1999/xlink" width="117pt" height="147pt" viewBox="0.00 0.00 233.80 294.80"><g id="graph0" class="graph" transform="scale(1 1) rotate(0) translate(14.4 280.4)"><g id="edge1" class="edge"><path fill="none" stroke="black" stroke-width="5" stroke-dasharray="1,5" d="M119.86,-231.06C112.33,-214.27 100.55,-187.98 93.06,-171.26"></path></g><g id="edge4" class="edge"><path fill="none" stroke="black" stroke-width="5" stroke-dasharray="1,5" d="M134.32,-231.06C141.08,-216.32 151.21,-194.25 158.78,-177.77"></path></g><g id="edge2" class="edge"><path fill="none" stroke="black" stroke-width="5" stroke-dasharray="1,5" d="M79.05,-137.79C70.46,-118.38 55.79,-85.23 46,-63.1"></path></g><g id="edge3" class="edge"><path fill="none" stroke="black" stroke-width="5" stroke-dasharray="1,5" d="M93.09,-137.79C101.9,-118.26 117,-84.82 126.99,-62.68"></path></g><g id="node1" class="node"><ellipse fill="none" stroke="transparent" stroke-width="2" cx="127" cy="-248" rx="18" ry="18"></ellipse><text text-anchor="middle" x="127" y="-236" font-family="math" font-size="40.00">@</text></g><g id="node2" class="node"><ellipse fill="none" stroke="transparent" stroke-width="2" cx="86" cy="-154.5" rx="18" ry="18"></ellipse><text text-anchor="middle" x="86" y="-142.5" font-family="math" font-size="40.00">@</text></g><g id="node3" class="node"><polygon fill="#bbb700" stroke="#bbb700" stroke-width="2" points="36,-79 0,-19.75 72,-19.75 36,-79"></polygon><text text-anchor="middle" x="36" y="-29" font-family="monospace" font-size="35.00">𝑦</text></g><g id="node4" class="node"><polygon fill="#00c9ff" stroke="#00c9ff" stroke-width="2" points="137,-79 101,-19.75 173,-19.75 137,-79"></polygon><text text-anchor="middle" x="137" y="-29" font-family="monospace" font-size="35.00">𝑢</text></g><g id="node5" class="node"><polygon fill="#b383ff" stroke="#b383ff" stroke-width="2" points="169,-194 133,-134.75 205,-134.75 169,-194"></polygon><text text-anchor="middle" x="169" y="-144" font-family="monospace" font-size="35.00">𝑣</text></g></g></svg>