<svg xmlns="http://www.w3.org/2000/svg" xmlns:xlink="http://www.w3.org/1999/xlink" width="133pt" height="90pt" viewBox="0.00 0.00 266.80 179.80"><g id="graph0" class="graph" transform="scale(1 1) rotate(0) translate(14.4 165.4)"><g id="edge1" class="edge"><path fill="none" stroke="black" stroke-width="10" d="M101,-132C101,-132 71.8,-103.36 50,-79 35.17,-62.42 18,-40.5 18,-40.5"></path></g><g id="edge2" class="edge"><path fill="none" stroke="black" stroke-width="10" d="M101,-132C101,-132 101,-40.5 101,-40.5"></path></g><g id="edge3" class="edge"><path fill="none" stroke="black" stroke-width="10" d="M101,-132C101,-132 202,-40.5 202,-40.5"></path></g><g id="node1" class="node"><ellipse fill="black" stroke="black" stroke-width="2" cx="101" cy="-133" rx="18" ry="18"></ellipse></g><g id="node2" class="node"><ellipse fill="black" stroke="black" stroke-width="2" cx="18" cy="-39.5" rx="18" ry="18"></ellipse></g><g id="node3" class="node"><polygon fill="#bbb700" stroke="#bbb700" stroke-width="2" points="101,-79 65,-19.75 137,-19.75 101,-79"></polygon><text text-anchor="middle" x="101" y="-29" font-family="monospace" font-size="35.00">𝑦</text></g><g id="node4" class="node"><polygon fill="#00da5c" stroke="#00da5c" stroke-width="2" points="202,-79 166,-19.75 238,-19.75 202,-79"></polygon><text text-anchor="middle" x="202" y="-29" font-family="monospace" font-size="35.00">𝑧</text></g></g></svg>