<svg xmlns="http://www.w3.org/2000/svg" xmlns:xlink="http://www.w3.org/1999/xlink" width="101pt" height="164pt" viewBox="0.00 0.00 201.80 337.80"><g id="graph0" class="graph" transform="scale(1 1) rotate(0) translate(14.4 323.4)"><g id="edge1" class="edge"><path fill="none" stroke="black" stroke-width="10" d="M86,-268.5C86,-268.5 36,-155.5 36,-155.5"></path></g><g id="edge2" class="edge"><path fill="none" stroke="black" stroke-width="10" d="M86,-268.5C86,-268.5 137,-155.5 137,-155.5"></path></g><g id="edge3" class="edge"><path fill="none" stroke="black" stroke-width="10" d="M137,-153.5C137,-153.5 137,-40.5 137,-40.5"></path></g><g id="node1" class="node"><polygon fill="#ff7b00" stroke="#ff7b00" stroke-width="2" points="86,-309 50,-249.75 122,-249.75 86,-309"></polygon><text text-anchor="middle" x="86" y="-259" font-family="monospace" font-size="35.00">𝑥</text></g><g id="node2" class="node"><polygon fill="#00da5c" stroke="#00da5c" stroke-width="2" points="36,-194 0,-134.75 72,-134.75 36,-194"></polygon><text text-anchor="middle" x="36" y="-144" font-family="monospace" font-size="35.00">𝑧</text></g><g id="node3" class="node"><polygon fill="#bbb700" stroke="#bbb700" stroke-width="2" points="137,-194 101,-134.75 173,-134.75 137,-194"></polygon><text text-anchor="middle" x="137" y="-144" font-family="monospace" font-size="35.00">𝑦</text></g><g id="node4" class="node"><polygon fill="#00da5c" stroke="#00da5c" stroke-width="2" points="137,-79 101,-19.75 173,-19.75 137,-79"></polygon><text text-anchor="middle" x="137" y="-29" font-family="monospace" font-size="35.00">𝑧</text></g></g></svg>